<?xml version="1.0" encoding="UTF-8"?>
<!DOCTYPE svg PUBLIC "-//W3C//DTD SVG 1.1//EN" "http://www.w3.org/Graphics/SVG/1.1/DTD/svg11.dtd">
<!-- Creator: CorelDRAW (Evaluation Version) -->
<svg xmlns="http://www.w3.org/2000/svg" xml:space="preserve"version="1.1" shape-rendering="geometricPrecision" text-rendering="geometricPrecision" image-rendering="optimizeQuality" fill-rule="evenodd" clip-rule="evenodd"
viewBox="0 0 4999.99 4999.99"
 xmlns:xlink="http://www.w3.org/1999/xlink"
 xmlns:xodm="http://www.corel.com/coreldraw/odm/2003">
 <g id="Layer_x0020_1">
  <metadata id="CorelCorpID_0Corel-Layer"/>
  <path fill="#1D75BF" d="M2087.38 3106.63c7.54,558.13 132.85,969.89 375.95,1235.27 -259.08,-94.66 -412.54,-319.73 -460.35,-675.18 28.78,81.65 56.91,130.24 84.41,145.77 -54.59,-183.27 -95.52,-341.82 -122.76,-475.69 -169.8,-360.02 -118.66,-728.3 153.44,-1104.85 -29.15,239.49 -3.57,444.08 76.74,613.79 54.3,30.23 84.98,-31.15 92.07,-184.14 -6.2,-572.98 188.17,-1007.76 583.11,-1304.32 -24.3,506.7 175.19,946.59 598.46,1319.67 309.54,577.93 248.17,1084.31 -184.14,1519.17 179.7,-285.35 241.07,-571.8 184.14,-859.32 -101.04,-326 -244.28,-576.64 -429.67,-751.92 -287.2,-240.26 -374.16,-485.78 -260.86,-736.57 -145.16,159.55 -232.12,364.15 -260.86,613.81 -120.81,672.5 -264.03,887.32 -429.67,644.5z"/>
  <path fill="#2DAAE2" d="M2240.84 3474.91c84.19,41.89 145.58,41.89 184.15,0 -16.5,-398.52 60.22,-771.94 230.18,-1120.2 38.72,260.69 166.59,475.5 383.6,644.5 271.85,281.88 387.47,585.59 346.84,911.09 -6.98,55.97 -18.59,112.58 -34.82,169.84 127.66,-246.97 166.88,-494.75 117.66,-743.34 -101.04,-326 -244.27,-576.64 -429.68,-751.92 -287.19,-240.25 -374.15,-485.78 -260.85,-736.56 -145.17,159.54 -232.13,364.15 -260.87,613.81 -120.82,672.5 -264.03,887.32 -429.67,644.49 7.55,558.14 132.85,969.91 375.96,1235.27 -7.37,-11.09 -14.58,-22.14 -21.62,-33.14 -208.85,-325.79 -275.8,-603.74 -200.88,-833.85z"/>
  <path fill="#A1DDF9" d="M2655.17 2354.71c-169.96,348.26 -246.68,721.67 -230.18,1120.2 -38.57,41.89 -99.96,41.89 -184.15,0 -74.92,230.11 -7.96,508.06 200.87,833.87 -40.83,-302.69 -25.96,-549.96 44.65,-741.79 104.33,-231.21 183.63,-469.07 237.86,-713.55 198.1,284.98 256.93,548.42 176.46,790.27 -63.13,78.85 -78.47,145.35 -46.04,199.49 132.72,-81.07 206.89,-252.44 222.51,-514.07 109.42,74.7 212.25,268.43 308.46,581.18 40.63,-325.5 -74.99,-629.21 -346.84,-911.09 -217.01,-169 -344.88,-383.82 -383.6,-644.5z"/>
  <path fill="#A1DDF9" d="M1169.54 2874.49c179.41,14.15 321.32,-46.48 425.7,-182.06 -141.1,252.45 -152.5,429.76 -34.24,531.91 27.04,12.63 51.45,28.09 73.24,46.35 -112.12,-140.03 -121.26,-280.89 -27.43,-422.66 145.15,-258.44 154.89,-451.7 29.15,-579.74 50.56,218.4 -19.24,386.03 -209.37,502.87 -166.72,28.6 -281.97,-119.29 -345.77,-443.61 116.55,-562.37 72.68,-910.1 -131.61,-1043.14 61.78,229.76 38.99,490.16 -68.35,781.21 -71.22,323.43 -60.54,588.29 32.02,794.57 -0.2,-3.37 -0.39,-6.73 -0.57,-10.09 -3.84,-18.95 -4.88,-41.04 -3.14,-66.29 -14.94,-385.88 29.62,-735.57 133.63,-1049.09 59.94,163.46 45.86,379.09 -42.19,646.89 8.19,234.8 64.49,399.09 168.92,492.87z"/>
  <path fill="#1E4EB7" d="M1169.54 2874.49c179.41,14.15 321.32,-46.48 425.7,-182.06 -141.1,252.45 -152.5,429.76 -34.24,531.91 27.04,12.63 51.45,28.09 73.24,46.35 -112.12,-140.03 -121.26,-280.89 -27.43,-422.66 145.15,-258.44 154.89,-451.7 29.15,-579.74 50.56,218.4 -19.24,386.03 -209.37,502.87 -166.72,28.6 -281.97,-119.29 -345.77,-443.61 116.55,-562.37 72.68,-910.1 -131.61,-1043.14 61.78,229.76 38.99,490.16 -68.35,781.21 -71.22,323.43 -60.54,588.29 32.02,794.57 -0.2,-3.37 -0.39,-6.73 -0.57,-10.09 -3.84,-18.95 -4.88,-41.04 -3.14,-66.29 -14.94,-385.88 29.62,-735.57 133.63,-1049.09 59.94,163.46 45.86,379.09 -42.19,646.89 8.19,234.8 64.49,399.09 168.92,492.87z"/>
  <path fill="#016ABD" d="M1595.24 2692.43c-104.38,135.57 -246.3,196.21 -425.7,182.06 -104.43,-93.77 -160.73,-258.07 -168.92,-492.87 88.05,-267.8 102.13,-483.43 42.19,-646.89 -104.01,313.51 -148.57,663.21 -133.63,1049.09 0.85,21.98 1.89,44.08 3.14,66.29 1.74,8.63 4.06,16.6 6.96,23.92 2.41,5.09 4.87,10.16 7.37,15.18 77.5,154.99 203.84,275.06 379.03,360.21 0,0 137.06,35.96 411.13,107.87 -8.95,-8.08 -17.57,-16.18 -25.83,-24.27 -21.17,-20.73 -40.06,-41.48 -56.76,-62.31 -28.3,-13.19 -52.72,-28.65 -73.22,-46.37 -118.26,-102.15 -106.86,-279.46 34.24,-531.91z"/>
  <path fill="#2FDDFD" d="M919.28 2874.03c2.41,5.09 4.87,10.16 7.37,15.18 -2.5,-5.02 -4.96,-10.09 -7.37,-15.18zm675.96 -181.6c-104.38,135.57 -246.3,196.21 -425.7,182.06 -104.43,-93.77 -160.73,-258.07 -168.92,-492.87 88.05,-267.8 102.13,-483.43 42.19,-646.89 -104.01,313.51 -148.57,663.21 -133.63,1049.09 0.85,21.98 1.89,44.08 3.14,66.29 1.74,8.63 4.06,16.6 6.96,23.92 2.14,5.42 4.6,10.48 7.37,15.18 77.5,154.99 203.84,275.06 379.03,360.21 0,0 137.06,35.96 411.13,107.87 -8.95,-8.08 -17.57,-16.18 -25.83,-24.27 -21.17,-20.73 -40.06,-41.48 -56.76,-62.31 -28.3,-13.19 -52.72,-28.65 -73.22,-46.37 -118.26,-102.15 -106.86,-279.46 34.24,-531.91z"/>
  <path fill="#2FDDFD" d="M2050.97 1776.73c29.42,41.04 65.21,41.04 107.4,0 -61.75,-102.79 -97.54,-102.79 -107.4,0z"/>
  <path fill="#2FDDFD" d="M3374.3 1981.67c17.98,110.97 58.04,202.46 120.18,274.43 -5.88,-82.33 -0.75,-153.94 15.35,-214.84 29.94,-29.29 53.99,-63.2 72.13,-101.77 10.37,-45.62 6.78,-83.3 -10.75,-113.06 -11.56,56.45 -47.35,112.71 -107.41,168.79 -29.66,-54.78 -20.35,-102.93 27.9,-144.37 18.04,-60.07 24.94,-120.81 20.66,-182.23 -27.26,-43.13 -40.89,-64.7 -40.89,-64.7 6.56,99.76 -6.22,173.94 -38.35,222.51 -37.44,59.05 -57.06,110.8 -58.81,155.24z"/>
  <path fill="#2FDDFD" d="M4061.2 2804.93c33.79,67.77 24.49,143.34 -27.9,226.72 -32.84,56 -83.98,35.55 -153.46,-61.39 -0.24,64.58 28.42,147.16 85.96,247.73 6.88,4.53 14.04,8.91 21.46,13.16 23.4,-6.15 48.97,-26.61 76.72,-61.39 92.33,-82.69 123.02,-184.99 92.07,-306.9 -17.94,-49.2 -46.84,-103.1 -86.69,-161.72 -4.33,36.15 -7.06,70.74 -8.17,103.8z"/>
  <path fill="#2FDDFD" d="M2925.17 823.17c16.2,25.72 36.67,41.07 61.38,46.03 0.97,-7.36 1.83,-14.69 2.57,-21.96 4.35,-42.33 4.98,-83.18 1.88,-122.54 -18.76,-11.94 -35.25,-24.2 -49.44,-36.83 -33.46,-29.72 -54.27,-61.34 -62.43,-94.89 1.06,49.08 4.78,91.67 11.17,127.75 7.71,43.65 19.34,77.8 34.87,102.43z"/>
  <path fill="#2FDDFD" d="M3006.17 980.74c-47.6,-5.35 -89.96,-27.19 -127.03,-65.5 -20.89,30.14 -20.65,69.43 0.7,117.88 9.03,12.14 19.02,23.99 29.98,35.56 10.24,153.46 15.36,230.18 15.36,230.18 40,-118.87 67,-224.89 81,-318.11z"/>
  <path fill="#065FC1" d="M2890.3 720.74c-6.39,-36.09 -10.11,-78.67 -11.17,-127.75 8.15,33.54 28.96,65.16 62.44,94.87 -9.52,-70.39 -43.12,-171.07 -100.81,-302.04 -16.51,174.35 0,286 49.54,334.91z"/>
  <path fill="#122D98" d="M2925.17 823.17c-2.38,37.51 -17.7,57.95 -46.03,61.37 -40.93,-51.15 -61.39,-76.72 -61.39,-76.72 -8.12,83.7 12.59,158.8 62.09,225.3 -21.34,-48.45 -21.58,-87.74 -0.7,-117.88 37.07,38.31 79.43,60.16 127.03,65.5 6.84,-45.51 10.57,-87.95 11.2,-127.35 -4.28,14.56 -14.56,30.06 -30.82,46.5 0,0 0.85,-17.54 2.57,-52.65 -0.75,7.28 -1.6,14.6 -2.57,21.96 -24.71,-4.96 -45.18,-20.31 -61.38,-46.03z"/>
  <path fill="#122D98" d="M2890.3 720.74c-49.54,-48.91 -66.05,-160.56 -49.54,-334.91 57.7,130.96 91.3,231.65 100.8,302.05 14.2,12.63 30.69,24.89 49.44,36.83 -5.43,-68.91 -22.26,-133.26 -50.49,-193.09 -74.89,-83.9 -115.82,-227.12 -122.78,-429.67 -20.62,225.18 -20.62,414.43 0,567.77 29.75,91.71 65.55,142.85 107.43,153.46 -15.52,-24.63 -27.15,-58.78 -34.87,-102.43z"/>
  <path fill="#122D98" d="M2219.76 1515.85c15.67,-75.31 0.32,-141.79 -46.04,-199.47 -43.64,-78.9 -64.1,-176.07 -61.38,-291.56 -42.05,144.68 -42.05,252.11 0,322.24 35.21,81.25 40.33,152.86 15.35,214.82 -10.09,57.7 -35.66,78.15 -76.72,61.39 -35.05,-49.16 -55.52,-90.06 -61.38,-122.76 9.17,156.07 34.74,278.82 76.72,368.29 177.49,-76.29 269.57,-183.69 276.21,-322.26 -24.69,139.71 -91.17,195.96 -199.47,168.8 -4.88,-77.39 20.69,-143.88 76.72,-199.49zm-168.8 260.87c9.86,-102.79 45.65,-102.79 107.4,0 -42.19,41.04 -77.98,41.04 -107.4,0z"/>
  <path fill="#122D98" d="M3417.76 1335.39c16.97,81.41 22.09,193.94 15.35,337.57 -57.84,109.56 -78.3,206.75 -61.4,291.56 0.81,5.76 1.66,11.47 2.59,17.14 1.75,-44.44 21.37,-96.19 58.81,-155.24 32.13,-48.57 44.91,-122.75 38.35,-222.51 0,0 13.63,21.57 40.88,64.7 -0.6,-8.76 -1.44,-17.54 -2.51,-26.33 3.4,-85.45 -27.27,-187.76 -92.07,-306.89z"/>
  <path fill="#122D98" d="M3617.25 1626.93c-14.33,83.91 -39.91,160.63 -76.73,230.18 -53.07,70.28 -73.53,80.52 -61.37,30.7 4.66,-12.29 8.84,-24.62 12.55,-36.96 -48.25,41.44 -57.56,89.59 -27.9,144.37 60.06,-56.07 95.86,-112.33 107.41,-168.79 17.53,29.76 21.12,67.44 10.75,113.06 38.96,-82.79 50.71,-186.98 35.28,-312.55z"/>
  <path fill="#122D98" d="M3956.56 2555.94c-67.74,-64.19 -103.54,-146.04 -107.4,-245.5 5.55,173.89 51.59,301.78 138.11,383.6 2.81,9.98 5.48,19.7 8.01,29.15 29.67,25.86 51.64,53.11 65.92,81.74 1.11,-33.06 3.84,-67.65 8.16,-103.8 -30.97,-45.55 -68.58,-93.95 -112.8,-145.19z"/>
  <path fill="#122D98" d="M3971.92 2970.26c-63.86,-14.91 -104.78,-101.85 -122.76,-260.85 -20.48,112.49 -20.48,230.13 0,352.93 16.91,63.61 55.79,115.5 116.65,155.65 -57.54,-100.57 -86.2,-183.15 -85.96,-247.73 69.48,96.94 120.62,117.4 153.46,61.39 52.39,-83.38 61.69,-158.94 27.9,-226.72 -14.28,-28.63 -36.25,-55.88 -65.92,-81.74 53.72,200.5 45.92,282.87 -23.36,247.07z"/>
  <path fill="#B7E1F1" d="M3707.81 4639.93c0,-11.08 -404.69,-20.06 -903.91,-20.06 -499.22,0 -903.91,8.98 -903.91,20.06 0,11.08 404.69,20.07 903.91,20.07 499.22,0 903.91,-8.98 903.91,-20.07z"/>
 </g>
</svg>
